<svg xmlns="http://www.w3.org/2000/svg" xmlns:xlink="http://www.w3.org/1999/xlink" width="571.997" height="498.607" viewBox="0 0 571.997 498.607">
  <defs>
    <linearGradient id="linear-gradient" x1="0.5" y1="1" x2="0.5" gradientUnits="objectBoundingBox">
      <stop offset="0" stop-color="gray" stop-opacity="0.251"/>
      <stop offset="0.54" stop-color="gray" stop-opacity="0.122"/>
      <stop offset="1" stop-color="gray" stop-opacity="0.102"/>
    </linearGradient>
  </defs>
  <g id="Illustration" transform="translate(1.79)">
    <rect id="Rectangle_37" data-name="Rectangle 37" width="32.945" height="17.106" transform="translate(483.214 179.296)" fill="#67b92f" opacity="0.2"/>
    <rect id="Rectangle_38" data-name="Rectangle 38" width="32.945" height="17.106" transform="translate(485.748 200.203)" fill="#67b92f" opacity="0.2"/>
    <rect id="Rectangle_39" data-name="Rectangle 39" width="32.945" height="17.106" transform="translate(458.506 55.119)" fill="#67b92f" opacity="0.2"/>
    <rect id="Rectangle_40" data-name="Rectangle 40" width="32.945" height="17.106" transform="translate(481.947 74.759)" fill="#67b92f" opacity="0.2"/>
    <rect id="Rectangle_41" data-name="Rectangle 41" width="32.945" height="17.106" transform="translate(418.592 56.386)" fill="#67b92f" opacity="0.2"/>
    <rect id="Rectangle_42" data-name="Rectangle 42" width="32.945" height="17.106" transform="translate(524.395 94.399)" fill="#67b92f" opacity="0.2"/>
    <rect id="Rectangle_43" data-name="Rectangle 43" width="32.945" height="17.106" transform="translate(484.481 95.667)" fill="#67b92f" opacity="0.2"/>
    <rect id="Rectangle_44" data-name="Rectangle 44" width="32.945" height="17.106" transform="translate(442.033 76.026)" fill="#67b92f" opacity="0.2"/>
    <rect id="Rectangle_45" data-name="Rectangle 45" width="32.945" height="17.106" transform="translate(522.495 226.179)" fill="#67b92f" opacity="0.2"/>
    <rect id="Rectangle_46" data-name="Rectangle 46" width="32.945" height="17.106" transform="translate(482.581 227.446)" fill="#67b92f" opacity="0.2"/>
    <path id="Path_77" data-name="Path 77" d="M251.934,332.5s46.433,46.433,20.223,115.307,44.925,183.5,44.925,183.5-.76-.114-2.173-.361c-95.362-16.834-142.746-125.9-89.692-206.9C244.907,393.9,261.088,358.564,251.934,332.5Z" transform="translate(-169.683 -157.639)" fill="#4891e3"/>
    <path id="Path_78" data-name="Path 78" d="M273.952,332.5s26.21,56.918,0,103.345-4.492,176.761,65.155,195.464" transform="translate(-191.701 -157.639)" fill="none" stroke="#535461" stroke-miterlimit="10" stroke-width="2"/>
    <path id="Path_79" data-name="Path 79" d="M149.63,628.584s52.984-8.439,57.812,39.046S309.33,721.7,309.33,721.7s-.634.431-1.818,1.21c-80.138,52.585-156.741,33.509-145.191-36.341C166.609,660.6,166.254,634.514,149.63,628.584Z" transform="translate(-150.083 -265.926)" fill="#4891e3"/>
    <path id="Path_80" data-name="Path 80" d="M149.63,628.584s52.984-8.439,57.812,39.046S309.33,721.7,309.33,721.7s-.634.431-1.818,1.21c-66.995,43.961-131.519,37.838-144.162-6.261-2.447-8.534-2.924-18.624-1.029-30.08.073-.442.144-.883.239-1.478C166.592,659.717,165.972,634.414,149.63,628.584Z" transform="translate(-151.42 -265.926)" fill="#f5f5f5" opacity="0.2"/>
    <path id="Path_81" data-name="Path 81" d="M149.63,628.92s41.124,9.028,37.747,46.421,61.075,82.242,121.953,46.693" transform="translate(-150.083 -266.261)" fill="none" stroke="#535461" stroke-miterlimit="10" stroke-width="2"/>
    <rect id="Rectangle_47" data-name="Rectangle 47" width="32.945" height="17.106" transform="translate(-0.187 179.929)" fill="#67b92f" opacity="0.2"/>
    <rect id="Rectangle_48" data-name="Rectangle 48" width="32.945" height="17.106" transform="translate(23.254 199.569)" fill="#67b92f" opacity="0.2"/>
    <rect id="Rectangle_49" data-name="Rectangle 49" width="32.945" height="17.106" transform="translate(201.283)" fill="#67b92f" opacity="0.2"/>
    <rect id="Rectangle_50" data-name="Rectangle 50" width="32.945" height="17.106" transform="translate(461.04 315.51)" fill="#67b92f" opacity="0.2"/>
    <rect id="Rectangle_51" data-name="Rectangle 51" width="32.945" height="17.106" transform="translate(25.789 220.477)" fill="#67b92f" opacity="0.2"/>
    <rect id="Rectangle_52" data-name="Rectangle 52" width="32.945" height="17.106" transform="translate(224.724 19.64)" fill="#67b92f" opacity="0.2"/>
    <rect id="Rectangle_53" data-name="Rectangle 53" width="32.945" height="17.106" transform="translate(104.349 135.58)" fill="#67b92f" opacity="0.2"/>
    <rect id="Rectangle_54" data-name="Rectangle 54" width="32.945" height="17.106" transform="translate(127.791 155.221)" fill="#67b92f" opacity="0.2"/>
    <rect id="Rectangle_55" data-name="Rectangle 55" width="32.945" height="17.106" transform="translate(190.512 144.45)" fill="#67b92f" opacity="0.2"/>
    <rect id="Rectangle_56" data-name="Rectangle 56" width="32.945" height="17.106" transform="translate(130.325 176.128)" fill="#67b92f" opacity="0.2"/>
    <rect id="Rectangle_57" data-name="Rectangle 57" width="32.945" height="17.106" transform="translate(505.389 315.51)" fill="#67b92f" opacity="0.2"/>
    <path id="Path_82" data-name="Path 82" d="M679.661,321.512a261.177,261.177,0,0,1-3.915-35.929h0a48.15,48.15,0,0,0-33.87-43.956c-3.459-1.064-7.267-2.059-11.474-2.952-36.873-7.831-48.074-.995-49.348-.1a47.279,47.279,0,0,1-2.807-6.088c-.063-.215-.12-.431-.184-.634a47.206,47.206,0,0,0,12.614-28.44c6.152-6.234,9.744-13.761,9.744-21.864a30.012,30.012,0,0,0-7.318-19.165V151.378A47.878,47.878,0,0,0,545.227,103.5h-3.884a47.878,47.878,0,0,0-47.878,47.878v11.866a29.706,29.706,0,0,0-6.621,18.3c0,7.932,3.447,15.307,9.364,21.465a47.212,47.212,0,0,0,13.14,29.359c.26,1.8.526,3.732.786,5.772l-65.953,13.932s-25.431,1.045-41.815,34.845C388.511,315.544,360.939,389.1,352.772,411h0c-1.476,3.966-2.312,6.241-2.312,6.241s.272-.272.786-.741l-.786,2.135s.4-.405,1.159-1.071c-1.153,9.161-1.318,24.892,10.682,26.85,10.061,1.641,35.986,2.319,55.569,2.591h1.356c12.982.171,22.859.171,22.859.171V447H652.7v-2.16a14.513,14.513,0,0,0-1.159-5.7l.291-.355a11.563,11.563,0,0,1,2.186,5.068,5.082,5.082,0,0,1-.1.532l.127-.323a5.428,5.428,0,0,1-.127,1.717s27.021-69.621,26.73-111.195A70.428,70.428,0,0,0,679.661,321.512ZM511.23,247.545a48.321,48.321,0,0,1-.672-6.006v-.057C510.793,243.439,511.022,245.467,511.23,247.545ZM429.363,397.089v16.593l-10.39,2.224Z" transform="translate(-223.677 -73.723)" fill="url(#linear-gradient)"/>
    <path id="Path_83" data-name="Path 83" d="M476.018,57.57h0A47.878,47.878,0,0,1,523.9,105.448v20.426H428.14V105.448A47.878,47.878,0,0,1,476.018,57.57Z" transform="translate(-157.477 -21.096)" fill="#e14b5a"/>
    <ellipse id="Ellipse_34" data-name="Ellipse 34" cx="54.574" cy="37.5" rx="54.574" ry="37.5" transform="translate(264.302 73.974)" fill="#e14b5a"/>
    <path id="Path_84" data-name="Path 84" d="M597.394,283.011s11.4,59.6,0,75.672,34.845,22.434,34.845,22.434l47.871-17.41,6.7-42.86S657.664,304.438,663.7,271.29Z" transform="translate(-313.502 -135.209)" fill="#f7c4a7"/>
    <path id="Path_85" data-name="Path 85" d="M794.735,596.626s3.016,13.058-13.393,15.4a92.785,92.785,0,0,1-29.194-.348l-3.618-32.8H786.7Z" transform="translate(-369.548 -247.924)" fill="#f7c4a7"/>
    <path id="Path_86" data-name="Path 86" d="M363.2,569.649s-7.248,29.454,9.161,32.115,76.66,2.68,76.66,2.68V569.6l-27.281,5.829L396.13,550.87Z" transform="translate(-227.76 -237.66)" fill="#f7c4a7"/>
    <path id="Path_87" data-name="Path 87" d="M514.814,318.5l-64.122,13.558s-24.442,1.007-40.18,33.483S360.62,490.773,360.62,490.773s29.143-29.467,63.286,2.008l22.77-41.181-5.024,65.294H618.083v-30.81s36.828,19.754,34.155,30.8c0,0,31.519-81.209,24.709-118.113a251.005,251.005,0,0,1-3.763-34.529h0a46.249,46.249,0,0,0-32.552-42.239c-3.32-1.02-6.969-1.977-11.024-2.832-37.836-8.033-47.516,0-47.516,0s-7.33,23.847-7.2,34.655c.165,13.894-19.754,23.106-19.754,23.106s-29.467-7.032-30.8-12.722S512.457,325.2,514.814,318.5Z" transform="translate(-227.4 -151.448)" opacity="0.1"/>
    <path id="Path_88" data-name="Path 88" d="M514.811,316.393l-64.122,13.558s-24.442,1.007-40.18,33.483-49.9,125.241-49.9,125.241,29.143-29.467,63.286,2.008l22.77-41.181-5.024,65.275H618.08v-30.8s36.828,19.754,34.155,30.8c0,0,31.519-81.209,24.709-118.113a251.014,251.014,0,0,1-3.763-34.529h0A46.249,46.249,0,0,0,640.628,319.9c-3.32-1.02-6.969-1.977-11.024-2.832-37.836-8.033-47.516,0-47.516,0s-7.33,23.847-7.2,34.655c.165,13.894-19.754,23.106-19.754,23.106s-29.467-7.032-30.8-12.722S512.454,323.09,514.811,316.393Z" transform="translate(-227.396 -150.675)" fill="#575988"/>
    <path id="Path_89" data-name="Path 89" d="M668.056,299.831a45.317,45.317,0,0,1-1.749-23.771L600,287.774s.957,5.011,2.04,12.519a45.527,45.527,0,0,0,66-.462Z" transform="translate(-315.12 -136.957)" opacity="0.1"/>
    <path id="Path_90" data-name="Path 90" d="M672.6,233.332a45.537,45.537,0,1,1-91.067,1.1c.006-.368.006-.735.006-1.1a45.524,45.524,0,0,1,53.174-44.9h0a45.5,45.5,0,0,1,37.766,41.878Q672.6,231.811,672.6,233.332Z" transform="translate(-308.352 -104.612)" fill="#f7c4a7"/>
    <g id="Group_3" data-name="Group 3" transform="translate(273.178 84.852)" opacity="0.1">
      <path id="Path_91" data-name="Path 91" d="M611.2,193.908l.063-.038a45.5,45.5,0,0,0-29.733,42.721v1.1a10.137,10.137,0,0,0,4.086-.982c11.1-5.182,17.74-21.034,20.375-32.089C606.942,200.662,607.835,196.2,611.2,193.908Z" transform="translate(-581.53 -191.691)"/>
      <path id="Path_92" data-name="Path 92" d="M660.812,193.921a45.159,45.159,0,0,0-11.322-3.491,14.61,14.61,0,0,1,8.128,5.106,20.819,20.819,0,0,1,2.49,4.435,45.66,45.66,0,0,0-38.3.792c2.857,6.266,11.721,9.681,17.638,11.968q9.719,3.751,19.64,6.861l-5.854-4.752,13.222,2.1a22.9,22.9,0,0,0-.925-7.793c2.534,2.04,5.892,2.724,8.642,4.435,5.151,3.25,7.3,9.5,10.105,14.92a9.887,9.887,0,0,0,2.952,3.8A45.559,45.559,0,0,0,660.812,193.921Z" transform="translate(-596.29 -190.43)"/>
    </g>
    <path id="Path_93" data-name="Path 93" d="M611.2,192.278l.063-.038a45.5,45.5,0,0,0-29.733,42.721v1.1a10.136,10.136,0,0,0,4.086-.982c11.1-5.182,17.74-21.034,20.375-32.089C606.942,199.057,607.835,194.578,611.2,192.278Z" transform="translate(-308.351 -106.241)" fill="#632652"/>
    <path id="Path_94" data-name="Path 94" d="M660.812,192.3a45.159,45.159,0,0,0-11.322-3.491,14.61,14.61,0,0,1,8.128,5.106,20.819,20.819,0,0,1,2.49,4.435,45.66,45.66,0,0,0-38.3.792c2.857,6.266,11.721,9.681,17.638,11.968q9.719,3.751,19.64,6.861l-5.854-4.752,13.222,2.1a22.9,22.9,0,0,0-.925-7.793c2.534,2.04,5.892,2.724,8.642,4.435,5.151,3.25,7.3,9.5,10.105,14.92a9.887,9.887,0,0,0,2.952,3.8A45.559,45.559,0,0,0,660.812,192.3Z" transform="translate(-323.112 -104.985)" fill="#632652"/>
    <path id="Path_95" data-name="Path 95" d="M573.33,222.755s46.883-58.287,101.122,0L669.763,209.7s-25.45-37.164-43.525-29.143-35.827,13.729-35.827,13.729Z" transform="translate(-305.347 -101.544)" opacity="0.1"/>
    <path id="Path_96" data-name="Path 96" d="M573.33,221.125s46.883-58.287,101.122,0l-4.688-13.058s-25.45-37.164-43.525-29.143-35.827,13.729-35.827,13.729Z" transform="translate(-305.347 -100.946)" fill="#e14b5a"/>
    <path id="Path_97" data-name="Path 97" d="M507.709,444.38s-10.042,26.787,4.017,50.893-12.386,34.155-12.386,34.155" transform="translate(-278.233 -198.637)" opacity="0.1"/>
    <path id="Path_98" data-name="Path 98" d="M766.684,406.33s17.41,22.1,6.025,41.853S762,515.485,762,515.485" transform="translate(-374.48 -184.694)" opacity="0.1"/>
    <path id="Path_99" data-name="Path 99" d="M329.527,553.3H523.059a16.073,16.073,0,0,1,16.073,16.073H313.46A16.073,16.073,0,0,1,329.527,553.3Z" transform="translate(-115.453 -202.755)" fill="#535461"/>
    <path id="Path_100" data-name="Path 100" d="M355.609,378.89H509.765A24.709,24.709,0,0,1,534.473,403.6v89.47H330.9V403.6A24.709,24.709,0,0,1,355.609,378.89Z" transform="translate(-121.843 -138.843)" fill="#535461"/>
    <circle id="Ellipse_35" data-name="Ellipse 35" cx="12.057" cy="12.057" r="12.057" transform="translate(298.616 290.104)" fill="#fff"/>
    <path id="Path_101" data-name="Path 101" d="M577.56,192.717s46.072-46.047,95.762-.843" transform="translate(-306.897 -98.825)" fill="none" stroke="#000" stroke-miterlimit="10" stroke-width="1" opacity="0.1"/>
    <rect id="Rectangle_58" data-name="Rectangle 58" width="4.625" height="26.223" transform="translate(373.438 90.959)" fill="#6a5c99"/>
    <path id="Path_102" data-name="Path 102" d="M580.62,170.35h0a15.94,15.94,0,0,1,15.94,15.94v1.026a15.94,15.94,0,0,1-15.94,15.94h0Z" transform="translate(-213.352 -62.424)" fill="#ffd037"/>
    <rect id="Rectangle_59" data-name="Rectangle 59" width="7.197" height="35.992" rx="3.599" transform="translate(364.182 106.386)" fill="#6a5c99"/>
    <rect id="Rectangle_60" data-name="Rectangle 60" width="4.625" height="26.223" transform="translate(263.175 117.695) rotate(180)" fill="#6a5c99"/>
    <path id="Path_103" data-name="Path 103" d="M0,0H0A15.94,15.94,0,0,1,15.94,15.94v1.026A15.94,15.94,0,0,1,0,32.907H0Z" transform="translate(269.345 141.346) rotate(180)" fill="#ffd037"/>
    <rect id="Rectangle_61" data-name="Rectangle 61" width="7.197" height="35.992" rx="3.599" transform="translate(272.431 142.885) rotate(180)" fill="#6a5c99"/>
    <path id="Path_104" data-name="Path 104" d="M672.04,138.435c-6.266-13.026-19.913-28.776-49.328-30.037v-.038h-.355l-10.422.494v.051c-29.219,1.343-42.8,17.036-49.05,30.018a67.53,67.53,0,0,0-6.475,28.13l3.6-.089,3.6-.082a61.234,61.234,0,0,1,5.848-25.038c7.932-16.295,22.529-24.956,43.379-25.76h0l9.218-.513h0c20.863.8,35.466,9.472,43.392,25.76a61.233,61.233,0,0,1,5.86,25.051l3.6.082,3.6.089a67.532,67.532,0,0,0-6.462-28.117Z" transform="translate(-299.146 -75.504)" fill="#ffd037"/>
    <rect id="Rectangle_62" data-name="Rectangle 62" width="490.82" height="131.779" transform="translate(46.474 366.827)" fill="#d6d6e3"/>
    <rect id="Rectangle_63" data-name="Rectangle 63" width="490.82" height="17.106" transform="translate(46.474 375.697)" opacity="0.1"/>
    <rect id="Rectangle_64" data-name="Rectangle 64" width="556.659" height="17.106" transform="translate(13.548 364.927)" fill="#d6d6e3"/>
  </g>
</svg>
